<svg width="97" height="28" viewBox="0 0 97 28" fill="none" xmlns="http://www.w3.org/2000/svg">
<path d="M12.922 11.376C12.8007 11.2547 12.5753 11.09 12.246 10.882C11.934 10.674 11.544 10.4747 11.076 10.284C10.6253 10.0933 10.1313 9.92867 9.594 9.79C9.05667 9.634 8.51067 9.556 7.956 9.556C6.98533 9.556 6.24867 9.738 5.746 10.102C5.26067 10.466 5.018 10.9773 5.018 11.636C5.018 12.1387 5.174 12.5373 5.486 12.832C5.798 13.1267 6.266 13.378 6.89 13.586C7.514 13.794 8.294 14.0193 9.23 14.262C10.4433 14.5567 11.492 14.9207 12.376 15.354C13.2773 15.77 13.962 16.3247 14.43 17.018C14.9153 17.694 15.158 18.5953 15.158 19.722C15.158 20.71 14.976 21.5593 14.612 22.27C14.248 22.9633 13.7453 23.5267 13.104 23.96C12.4627 24.3933 11.7347 24.714 10.92 24.922C10.1053 25.1127 9.23867 25.208 8.32 25.208C7.40133 25.208 6.48267 25.1127 5.564 24.922C4.64533 24.7313 3.76133 24.4627 2.912 24.116C2.06267 23.752 1.28267 23.3187 0.572 22.816L2.158 19.722C2.314 19.878 2.59133 20.086 2.99 20.346C3.38867 20.5887 3.874 20.84 4.446 21.1C5.018 21.3427 5.642 21.5507 6.318 21.724C6.994 21.8973 7.67867 21.984 8.372 21.984C9.34267 21.984 10.0793 21.8193 10.582 21.49C11.0847 21.1607 11.336 20.6927 11.336 20.086C11.336 19.5313 11.1367 19.098 10.738 18.786C10.3393 18.474 9.78467 18.2053 9.074 17.98C8.36333 17.7373 7.52267 17.4773 6.552 17.2C5.39067 16.8707 4.42 16.5067 3.64 16.108C2.86 15.692 2.27933 15.172 1.898 14.548C1.51667 13.924 1.326 13.144 1.326 12.208C1.326 10.9427 1.62067 9.88533 2.21 9.036C2.81667 8.16933 3.63133 7.51933 4.654 7.086C5.67667 6.63533 6.812 6.41 8.06 6.41C8.92667 6.41 9.74133 6.50533 10.504 6.696C11.284 6.88667 12.012 7.138 12.688 7.45C13.364 7.762 13.9707 8.1 14.508 8.464L12.922 11.376ZM30.1425 25H26.6585V17.356C26.6585 16.2987 26.4505 15.51 26.0345 14.99C25.6359 14.47 25.0812 14.21 24.3705 14.21C23.9545 14.21 23.5125 14.3313 23.0445 14.574C22.5765 14.8167 22.1519 15.1547 21.7705 15.588C21.4065 16.004 21.1379 16.4893 20.9645 17.044V25H17.4805V6.02H20.9645V13.898C21.4672 13.0313 22.1519 12.3553 23.0185 11.87C23.8852 11.3847 24.8299 11.142 25.8525 11.142C26.7365 11.142 27.4559 11.298 28.0105 11.61C28.5652 11.9047 28.9985 12.312 29.3105 12.832C29.6225 13.3347 29.8392 13.9067 29.9605 14.548C30.0819 15.172 30.1425 15.822 30.1425 16.498V25ZM33.1719 25V11.376H36.6559V25H33.1719ZM33.1719 9.478V6.02H36.6559V9.478H33.1719ZM49.1069 25L45.1289 19.124L43.2829 20.944V25H39.7989V6.02H43.2829V17.512L48.7689 11.402H52.4609L47.3909 17.174L52.8249 25H49.1069ZM66.9589 25H63.4749V17.356C63.4749 16.2987 63.2669 15.51 62.8509 14.99C62.4523 14.47 61.8976 14.21 61.1869 14.21C60.7709 14.21 60.3289 14.3313 59.8609 14.574C59.3929 14.8167 58.9683 15.1547 58.5869 15.588C58.2229 16.004 57.9543 16.4893 57.7809 17.044V25H54.2969V6.02H57.7809V13.898C58.2836 13.0313 58.9683 12.3553 59.8349 11.87C60.7016 11.3847 61.6463 11.142 62.6689 11.142C63.5529 11.142 64.2723 11.298 64.8269 11.61C65.3816 11.9047 65.8149 12.312 66.1269 12.832C66.4389 13.3347 66.6556 13.9067 66.7769 14.548C66.8983 15.172 66.9589 15.822 66.9589 16.498V25ZM69.0523 20.97C69.0523 20.086 69.295 19.3147 69.7803 18.656C70.283 17.98 70.9763 17.46 71.8603 17.096C72.7443 16.732 73.7583 16.55 74.9023 16.55C75.4743 16.55 76.055 16.5933 76.6443 16.68C77.2337 16.7667 77.745 16.9053 78.1783 17.096V16.368C78.1783 15.5013 77.9183 14.834 77.3983 14.366C76.8957 13.898 76.1417 13.664 75.1363 13.664C74.391 13.664 73.6803 13.794 73.0043 14.054C72.3283 14.314 71.6177 14.6953 70.8723 15.198L69.7543 12.91C70.6557 12.3207 71.5743 11.8787 72.5103 11.584C73.4637 11.2893 74.4603 11.142 75.5003 11.142C77.4417 11.142 78.9497 11.6273 80.0243 12.598C81.1163 13.5687 81.6623 14.9553 81.6623 16.758V21.1C81.6623 21.464 81.723 21.724 81.8443 21.88C81.983 22.036 82.1997 22.1313 82.4943 22.166V25C82.1823 25.052 81.8963 25.0953 81.6363 25.13C81.3937 25.1647 81.1857 25.182 81.0123 25.182C80.319 25.182 79.7903 25.026 79.4263 24.714C79.0797 24.402 78.863 24.0207 78.7763 23.57L78.6983 22.868C78.109 23.6307 77.3723 24.22 76.4883 24.636C75.6043 25.052 74.703 25.26 73.7843 25.26C72.883 25.26 72.0683 25.078 71.3403 24.714C70.6297 24.3327 70.0663 23.8213 69.6503 23.18C69.2517 22.5213 69.0523 21.7847 69.0523 20.97ZM77.5283 21.672C77.719 21.464 77.875 21.256 77.9963 21.048C78.1177 20.84 78.1783 20.6493 78.1783 20.476V19.098C77.7623 18.9247 77.3117 18.7947 76.8263 18.708C76.341 18.604 75.8817 18.552 75.4483 18.552C74.547 18.552 73.8017 18.7513 73.2123 19.15C72.6403 19.5313 72.3543 20.0427 72.3543 20.684C72.3543 21.0307 72.4497 21.36 72.6403 21.672C72.831 21.984 73.1083 22.2353 73.4723 22.426C73.8363 22.6167 74.2697 22.712 74.7723 22.712C75.2923 22.712 75.8037 22.6167 76.3063 22.426C76.809 22.218 77.2163 21.9667 77.5283 21.672ZM93.03 14.392C91.9727 14.392 91.028 14.6 90.196 15.016C89.364 15.4147 88.766 15.9953 88.402 16.758V25H84.918V11.376H88.116V14.288C88.6014 13.352 89.2167 12.6153 89.962 12.078C90.7074 11.5407 91.496 11.246 92.328 11.194C92.5187 11.194 92.666 11.194 92.77 11.194C92.874 11.194 92.9607 11.2027 93.03 11.22V14.392Z" fill="black"/>
<path d="M33.907 0.800049C33.667 0.800049 33.587 0.960049 33.427 1.12005L28.787 8.72005C28.707 8.80005 28.707 8.96005 28.707 9.04005C28.707 9.44005 29.027 9.60005 29.267 9.60005H38.547C38.867 9.60005 39.107 9.44005 39.107 9.04005C39.107 8.88005 39.107 8.88005 39.027 8.72005L34.467 1.12005C34.307 0.960049 34.147 0.800049 33.907 0.800049ZM33.907 2.00005L36.547 6.40005H35.907L34.707 5.20005L33.907 6.40005L33.107 5.20005L31.907 6.40005H31.187L33.907 2.00005Z" fill="#226F01"/>
</svg>
